<?xml version="1.0" encoding="utf-8"?>
<!-- Generator: Adobe Illustrator 17.0.2, SVG Export Plug-In . SVG Version: 6.00 Build 0)  -->
<!DOCTYPE svg PUBLIC "-//W3C//DTD SVG 1.1//EN" "http://www.w3.org/Graphics/SVG/1.1/DTD/svg11.dtd">
<svg version="1.1" id="Layer_1" xmlns="http://www.w3.org/2000/svg" xmlns:xlink="http://www.w3.org/1999/xlink" x="0px" y="0px"
	 width="214.804px" height="49.561px" viewBox="0 0 214.804 49.561" enable-background="new 0 0 214.804 49.561"
	 xml:space="preserve">
<polygon fill="#5DB4C2" points="153.46,35.123 147.599,29.262 147.599,20.974 153.46,15.113 161.749,15.113 167.61,20.974 
	167.61,29.263 161.749,35.124 "/>
<g>
	<path fill="#4F4F4F" d="M3.295,47.079V16.358L0,14.548V13.11l6.149-1.833l1.067,0.487v2.691c0.325-0.371,0.754-0.762,1.288-1.172
		s1.148-0.785,1.845-1.125c0.696-0.341,1.469-0.623,2.32-0.848c0.851-0.224,1.755-0.336,2.715-0.336c1.299,0,2.56,0.229,3.782,0.685
		s2.309,1.194,3.26,2.216c0.951,1.021,1.713,2.354,2.285,4.002s0.859,3.655,0.859,6.021c0,1.98-0.321,3.84-0.963,5.58
		s-1.547,3.26-2.715,4.56s-2.564,2.324-4.188,3.074c-1.625,0.75-3.411,1.125-5.36,1.125c-0.867,0-1.687-0.073-2.459-0.22
		c-0.774-0.147-1.532-0.321-2.274-0.522l0.139,6.242v3.364l4.548,0.487v1.972H0.046v-1.972L3.295,47.079z M7.75,33.76
		c0.355,0.619,0.963,1.113,1.821,1.484c0.858,0.372,1.96,0.558,3.307,0.558c1.005,0,1.995-0.205,2.97-0.615
		c0.975-0.409,1.848-1.067,2.622-1.972c0.773-0.905,1.404-2.073,1.891-3.504c0.487-1.431,0.746-3.167,0.777-5.209
		c0.031-1.949-0.166-3.593-0.591-4.931c-0.426-1.338-0.998-2.425-1.717-3.26c-0.719-0.836-1.539-1.435-2.459-1.799
		c-0.92-0.363-1.868-0.545-2.842-0.545c-0.743,0-1.412,0.085-2.007,0.255c-0.596,0.171-1.133,0.38-1.613,0.627
		s-0.901,0.51-1.265,0.789c-0.363,0.278-0.669,0.525-0.917,0.742l0.023,9.025C7.75,25.405,7.75,33.76,7.75,33.76z"/>
	<path fill="#4F4F4F" d="M30.28,24.201c0.031-2.073,0.391-3.925,1.079-5.558c0.688-1.632,1.597-3.012,2.727-4.142
		c1.129-1.129,2.432-1.995,3.91-2.599c1.477-0.603,3.02-0.912,4.629-0.928c1.964-0.016,3.673,0.325,5.127,1.021
		s2.657,1.651,3.608,2.866c0.951,1.214,1.659,2.642,2.123,4.28c0.464,1.64,0.688,3.396,0.673,5.268
		c-0.016,2.058-0.345,3.937-0.986,5.638c-0.642,1.702-1.508,3.16-2.599,4.374c-1.09,1.215-2.367,2.158-3.829,2.831
		c-1.461,0.673-3.028,1.009-4.698,1.009c-2.135,0-3.953-0.387-5.453-1.16s-2.723-1.81-3.666-3.109
		c-0.944-1.299-1.628-2.796-2.054-4.489S30.249,26.042,30.28,24.201z M42.252,35.663c1.315,0.031,2.425-0.193,3.33-0.673
		c0.905-0.479,1.64-1.187,2.205-2.123c0.564-0.936,0.975-2.096,1.229-3.48c0.255-1.384,0.383-2.974,0.383-4.768
		c0-1.562-0.135-3.021-0.406-4.374c-0.271-1.354-0.696-2.533-1.276-3.538c-0.58-1.006-1.315-1.799-2.204-2.379
		c-0.89-0.58-1.945-0.885-3.167-0.916c-1.315-0.016-2.433,0.213-3.353,0.685c-0.92,0.472-1.675,1.164-2.262,2.076
		c-0.588,0.913-1.018,2.026-1.288,3.341c-0.271,1.315-0.406,2.808-0.406,4.479c0,1.501,0.147,2.947,0.441,4.339
		c0.293,1.393,0.734,2.626,1.322,3.701s1.334,1.941,2.239,2.599S41.015,35.632,42.252,35.663z"/>
	<path fill="#4F4F4F" d="M58.958,35.732l3.944-0.487V3.829L59.19,2.993V0.975L66.453,0l0.928,0.534v34.711l4.13,0.487v1.973H58.958
		V35.732z"/>
	<path fill="#4F4F4F" d="M75.386,30.233c0.108-1.082,0.456-2.03,1.044-2.842c0.587-0.812,1.314-1.512,2.181-2.1
		s1.829-1.075,2.889-1.462c1.059-0.387,2.123-0.696,3.19-0.929c1.067-0.231,2.096-0.395,3.086-0.487
		c0.99-0.093,1.848-0.139,2.575-0.139v-2.019c0-1.222-0.162-2.216-0.487-2.981c-0.325-0.766-0.773-1.365-1.346-1.799
		c-0.572-0.433-1.245-0.727-2.019-0.882c-0.773-0.154-1.609-0.231-2.506-0.231c-0.449,0-0.951,0.043-1.508,0.127
		c-0.557,0.086-1.133,0.206-1.729,0.36c-0.596,0.154-1.195,0.34-1.798,0.557s-1.176,0.456-1.717,0.72l-0.858-2.089
		c0.572-0.464,1.272-0.87,2.1-1.218c0.827-0.349,1.678-0.639,2.552-0.87c0.874-0.232,1.725-0.402,2.552-0.511
		s1.535-0.162,2.123-0.162c1.222,0,2.386,0.127,3.492,0.383c1.106,0.255,2.077,0.704,2.912,1.346
		c0.835,0.642,1.497,1.508,1.984,2.599c0.486,1.091,0.73,2.479,0.73,4.165l-0.046,15.963h2.97v1.532
		c-0.542,0.294-1.211,0.533-2.007,0.719c-0.797,0.186-1.598,0.278-2.402,0.278c-0.278,0-0.58-0.02-0.905-0.058
		c-0.325-0.039-0.623-0.136-0.894-0.29c-0.271-0.155-0.495-0.395-0.673-0.72c-0.178-0.324-0.267-0.773-0.267-1.346v-0.649
		c-0.356,0.434-0.777,0.835-1.265,1.206c-0.487,0.372-1.044,0.696-1.67,0.975s-1.338,0.495-2.135,0.65
		c-0.797,0.154-1.682,0.231-2.657,0.231c-1.207,0-2.301-0.217-3.283-0.649c-0.982-0.433-1.802-1.017-2.459-1.752
		c-0.658-0.734-1.145-1.585-1.462-2.552S75.262,31.316,75.386,30.233z M79.887,30.326c0,0.913,0.124,1.687,0.371,2.32
		c0.248,0.635,0.607,1.149,1.079,1.543c0.472,0.395,1.048,0.682,1.729,0.859s1.446,0.267,2.297,0.267
		c0.464,0,0.936-0.062,1.415-0.186s0.94-0.278,1.381-0.465c0.441-0.186,0.851-0.397,1.229-0.638
		c0.379-0.239,0.685-0.476,0.917-0.708c0-1.453,0.004-2.896,0.012-4.327s0.019-2.873,0.035-4.327c-0.649,0-1.361,0.035-2.135,0.104
		s-1.547,0.189-2.32,0.359c-0.774,0.171-1.524,0.395-2.251,0.673s-1.369,0.631-1.926,1.056c-0.557,0.426-1.001,0.925-1.334,1.497
		C80.053,28.926,79.887,29.583,79.887,30.326z"/>
	<path fill="#4F4F4F" d="M101.814,35.732l3.759-0.487V16.358l-3.295-1.81V13.11l6.126-1.833l1.091,0.464v3.573
		c0.293-0.433,0.738-0.89,1.334-1.369c0.595-0.479,1.265-0.916,2.007-1.311s1.516-0.72,2.321-0.975
		c0.804-0.256,1.562-0.383,2.273-0.383c0.511,0,0.971,0.012,1.381,0.034c0.41,0.023,0.7,0.066,0.87,0.128v4.757
		c-0.248-0.093-0.503-0.189-0.766-0.29c-0.264-0.101-0.554-0.186-0.87-0.256c-0.317-0.069-0.677-0.127-1.079-0.174
		c-0.402-0.046-0.866-0.069-1.392-0.069c-1.253,0-2.306,0.159-3.157,0.476s-1.632,0.7-2.343,1.148v18.145l6.613,0.557v1.973h-14.874
		L101.814,35.732L101.814,35.732z"/>
	<path fill="#4F4F4F" d="M123.068,25.221c-0.016-2.135,0.302-4.061,0.951-5.777s1.543-3.187,2.68-4.408s2.475-2.173,4.015-2.854
		c1.538-0.68,3.197-1.059,4.977-1.137c0.649-0.015,1.311-0.004,1.983,0.035s1.308,0.108,1.903,0.209s1.141,0.229,1.636,0.383
		s0.896,0.332,1.206,0.533v5.568h-2.204l-1.184-2.923c-0.247-0.201-0.533-0.371-0.858-0.511c-0.324-0.14-0.657-0.255-0.997-0.348
		c-0.341-0.093-0.682-0.159-1.021-0.197c-0.34-0.039-0.649-0.059-0.928-0.059c-1.037,0-2.026,0.194-2.97,0.58
		c-0.944,0.387-1.779,0.971-2.506,1.752c-0.728,0.781-1.308,1.764-1.74,2.947c-0.434,1.183-0.658,2.571-0.673,4.164
		c-0.016,2.104,0.231,3.906,0.742,5.406c0.511,1.501,1.175,2.727,1.995,3.678c0.82,0.952,1.732,1.647,2.738,2.089
		c1.005,0.44,1.995,0.661,2.97,0.661c0.604,0,1.229-0.038,1.88-0.116c0.649-0.077,1.275-0.178,1.879-0.302
		c0.604-0.123,1.16-0.274,1.671-0.452s0.928-0.359,1.253-0.545l0.789,2.064c-0.449,0.402-1.006,0.758-1.671,1.067
		s-1.396,0.572-2.192,0.789c-0.797,0.217-1.633,0.383-2.506,0.499c-0.874,0.116-1.752,0.174-2.634,0.174
		c-1.795,0-3.38-0.325-4.757-0.975s-2.54-1.555-3.492-2.715c-0.951-1.16-1.674-2.532-2.169-4.118S123.083,27.078,123.068,25.221z"/>
	<path fill="#4F4F4F" d="M171.747,35.732l3.759-0.487V16.358l-3.295-1.81V13.11l6.126-1.833l1.091,0.464v3.573
		c0.293-0.433,0.738-0.89,1.334-1.369c0.595-0.479,1.265-0.916,2.007-1.311s1.516-0.72,2.32-0.975
		c0.804-0.256,1.562-0.383,2.273-0.383c0.511,0,0.971,0.012,1.381,0.034c0.41,0.023,0.7,0.066,0.87,0.128v4.757
		c-0.248-0.093-0.503-0.189-0.766-0.29c-0.264-0.101-0.554-0.186-0.87-0.256c-0.317-0.069-0.677-0.127-1.079-0.174
		c-0.402-0.046-0.866-0.069-1.392-0.069c-1.253,0-2.306,0.159-3.156,0.476c-0.851,0.317-1.632,0.7-2.343,1.148v18.145l6.612,0.557
		v1.973h-14.873L171.747,35.732L171.747,35.732z"/>
	<path fill="#4F4F4F" d="M192.886,24.804c0-1.98,0.313-3.806,0.939-5.477c0.627-1.67,1.5-3.116,2.622-4.339
		c1.121-1.222,2.471-2.185,4.049-2.889c1.578-0.703,3.318-1.079,5.221-1.125c1.361-0.031,2.591,0.166,3.689,0.592
		c1.098,0.426,2.034,1.056,2.808,1.891c0.773,0.836,1.38,1.856,1.821,3.062c0.44,1.207,0.692,2.576,0.754,4.107
		c0.031,0.975,0.012,1.817-0.058,2.529c-0.07,0.711-0.144,1.346-0.221,1.902h-17.193c0,0.093,0,0.182,0,0.267
		s0.008,0.174,0.023,0.267c0.062,1.872,0.379,3.419,0.951,4.641c0.572,1.223,1.288,2.193,2.146,2.912
		c0.858,0.72,1.806,1.223,2.842,1.509s2.05,0.429,3.04,0.429c0.604,0,1.237-0.034,1.902-0.104c0.665-0.069,1.312-0.17,1.938-0.302
		c0.627-0.131,1.207-0.281,1.74-0.452c0.533-0.17,0.963-0.348,1.288-0.533l0.858,1.972c-0.449,0.402-1.033,0.766-1.752,1.091
		c-0.72,0.324-1.505,0.6-2.355,0.823c-0.851,0.225-1.74,0.395-2.668,0.511s-1.833,0.174-2.715,0.174
		c-1.872,0-3.53-0.321-4.977-0.963c-1.447-0.642-2.665-1.547-3.655-2.715c-0.989-1.167-1.744-2.579-2.262-4.234
		C193.145,28.694,192.886,26.845,192.886,24.804z M210.056,22.321c0.047-0.788,0.058-1.581,0.035-2.378s-0.12-1.555-0.29-2.273
		c-0.171-0.72-0.43-1.377-0.777-1.973c-0.349-0.596-0.816-1.079-1.404-1.45c-0.402-0.263-0.858-0.46-1.368-0.592
		c-0.511-0.131-1.091-0.197-1.74-0.197c-0.867,0-1.706,0.162-2.518,0.487c-0.812,0.325-1.54,0.844-2.182,1.555
		c-0.642,0.712-1.18,1.628-1.612,2.75c-0.434,1.121-0.712,2.479-0.835,4.071H210.056z"/>
</g>
</svg>
